<svg width="223" height="48" viewBox="0 0 223 48" fill="none" xmlns="http://www.w3.org/2000/svg">
    <path d="M37.1328 30.1094C37.1328 29.0938 36.7109 28.3203 35.8672 27.7891C35.0391 27.2578 33.6562 26.7891 31.7188 26.3828C29.7812 25.9766 28.1641 25.4609 26.8672 24.8359C24.0234 23.4609 22.6016 21.4688 22.6016 18.8594C22.6016 16.6719 23.5234 14.8438 25.3672 13.375C27.2109 11.9062 29.5547 11.1719 32.3984 11.1719C35.4297 11.1719 37.875 11.9219 39.7344 13.4219C41.6094 14.9219 42.5469 16.8672 42.5469 19.2578H36.8516C36.8516 18.1641 36.4453 17.2578 35.6328 16.5391C34.8203 15.8047 33.7422 15.4375 32.3984 15.4375C31.1484 15.4375 30.125 15.7266 29.3281 16.3047C28.5469 16.8828 28.1562 17.6562 28.1562 18.625C28.1562 19.5 28.5234 20.1797 29.2578 20.6641C29.9922 21.1484 31.4766 21.6406 33.7109 22.1406C35.9453 22.625 37.6953 23.2109 38.9609 23.8984C40.2422 24.5703 41.1875 25.3828 41.7969 26.3359C42.4219 27.2891 42.7344 28.4453 42.7344 29.8047C42.7344 32.0859 41.7891 33.9375 39.8984 35.3594C38.0078 36.7656 35.5312 37.4688 32.4688 37.4688C30.3906 37.4688 28.5391 37.0938 26.9141 36.3438C25.2891 35.5938 24.0234 34.5625 23.1172 33.25C22.2109 31.9375 21.7578 30.5234 21.7578 29.0078H27.2891C27.3672 30.3516 27.875 31.3906 28.8125 32.125C29.75 32.8438 30.9922 33.2031 32.5391 33.2031C34.0391 33.2031 35.1797 32.9219 35.9609 32.3594C36.7422 31.7812 37.1328 31.0312 37.1328 30.1094ZM56.5859 28.8438L61.7422 11.6406H67.8125L57.7344 40.8438C56.1875 45.1094 53.5625 47.2422 49.8594 47.2422C49.0312 47.2422 48.1172 47.1016 47.1172 46.8203V42.4141L48.1953 42.4844C49.6328 42.4844 50.7109 42.2188 51.4297 41.6875C52.1641 41.1719 52.7422 40.2969 53.1641 39.0625L53.9844 36.8828L45.0781 11.6406H51.2188L56.5859 28.8438ZM76.3906 11.6406L76.5547 14.5703C78.4297 12.3047 80.8906 11.1719 83.9375 11.1719C89.2188 11.1719 91.9062 14.1953 92 20.2422V37H86.3047V20.5703C86.3047 18.9609 85.9531 17.7734 85.25 17.0078C84.5625 16.2266 83.4297 15.8359 81.8516 15.8359C79.5547 15.8359 77.8438 16.875 76.7188 18.9531V37H71.0234V11.6406H76.3906ZM96.7578 24.1094C96.7578 20.1406 97.6641 16.9922 99.4766 14.6641C101.289 12.3359 103.742 11.1719 106.836 11.1719C109.664 11.1719 111.906 12.1641 113.562 14.1484L113.891 11.6406H118.953V46.75H113.258V34.8438C111.602 36.5938 109.445 37.4688 106.789 37.4688C103.758 37.4688 101.328 36.2891 99.5 33.9297C97.6719 31.5547 96.7578 28.2812 96.7578 24.1094ZM102.453 24.6016C102.453 27.1953 102.961 29.2344 103.977 30.7188C105.008 32.1875 106.43 32.9219 108.242 32.9219C110.492 32.9219 112.164 31.9609 113.258 30.0391V18.5078C112.164 16.6641 110.508 15.7422 108.289 15.7422C106.477 15.7422 105.047 16.4688 104 17.9219C102.969 19.375 102.453 21.6016 102.453 24.6016ZM131.164 37H125.469V11.6406H131.164V37ZM125.117 5.05469C125.117 4.17969 125.391 3.45313 125.938 2.875C126.5 2.29687 127.297 2.00781 128.328 2.00781C129.359 2.00781 130.156 2.29687 130.719 2.875C131.281 3.45313 131.562 4.17969 131.562 5.05469C131.562 5.91406 131.281 6.63281 130.719 7.21094C130.156 7.77344 129.359 8.05469 128.328 8.05469C127.297 8.05469 126.5 7.77344 125.938 7.21094C125.391 6.63281 125.117 5.91406 125.117 5.05469ZM139.391 37V15.8594H135.523V11.6406H139.391V9.32031C139.391 6.50781 140.172 4.33594 141.734 2.80469C143.297 1.27344 145.484 0.507812 148.297 0.507812C149.297 0.507812 150.359 0.648438 151.484 0.929688L151.344 5.38281C150.719 5.25781 149.992 5.19531 149.164 5.19531C146.445 5.19531 145.086 6.59375 145.086 9.39062V11.6406H150.242V15.8594H145.086V37H139.391ZM163.273 28.8438L168.43 11.6406H174.5L164.422 40.8438C162.875 45.1094 160.25 47.2422 156.547 47.2422C155.719 47.2422 154.805 47.1016 153.805 46.8203V42.4141L154.883 42.4844C156.32 42.4844 157.398 42.2188 158.117 41.6875C158.852 41.1719 159.43 40.2969 159.852 39.0625L160.672 36.8828L151.766 11.6406H157.906L163.273 28.8438Z" fill="#FAD02C"/>
    <path d="M7 28.4807C40.0275 18.7298 56.6561 18.2856 82.1825 28.4807C92.7399 34.3718 98.5646 34.6396 108.747 28.4807C116.982 23.3082 121.689 22.9568 130.299 28.4807C135.859 33.1308 138.569 31.7189 143.331 28.4807C148.633 23.2829 151.941 23.4217 158.367 28.4807C163.279 33.9097 166.371 32.8089 170.898 28.4807C175.839 21.5911 178.992 21.3216 185.433 28.4807C190.435 33.592 193.205 34.2175 200.47 28.4807C205.599 24.143 208.27 25.4752 213 28.4807" stroke="#FAD02C" stroke-opacity="0.5" stroke-width="1.5"/>
    <path d="M16 28.4807C49.0275 18.7298 65.6561 18.2856 91.1825 28.4807C101.74 34.3718 107.565 34.6396 117.747 28.4807C125.982 23.3082 130.689 22.9568 139.299 28.4807C144.859 33.1308 147.569 31.7189 152.331 28.4807C157.633 23.2829 160.941 23.4217 167.367 28.4807C172.279 33.9097 175.371 32.8089 179.898 28.4807C184.839 21.5911 187.992 21.3216 194.433 28.4807C199.435 33.592 202.205 34.2175 209.47 28.4807C214.599 24.143 217.27 25.4752 222 28.4807" stroke="#FAD02C" stroke-opacity="0.4" stroke-width="1.5"/>
    <path d="M1 28.4807C34.0275 18.7298 50.6561 18.2856 76.1825 28.4807C86.7399 34.3718 92.5646 34.6396 102.747 28.4807C110.982 23.3082 115.689 22.9568 124.299 28.4807C129.859 33.1308 132.569 31.7189 137.331 28.4807C142.633 23.2829 145.941 23.4217 152.367 28.4807C157.279 33.9097 160.371 32.8089 164.898 28.4807C169.839 21.5911 172.992 21.3216 179.433 28.4807C184.435 33.592 187.205 34.2175 194.47 28.4807C199.599 24.143 202.27 25.4752 207 28.4807" stroke="#FAD02C" stroke-opacity="0.3" stroke-width="1.5"/>
</svg>
